<svg width="16" height="16" xmlns="http://www.w3.org/2000/svg" xmlns:xlink="http://www.w3.org/1999/xlink" overflow="hidden"><defs><clipPath id="clip0"><rect x="0" y="0" width="16" height="16"/></clipPath></defs><g clip-path="url(#clip0)"><path d="M1.646 4.646C1.84102 4.45049 2.1576 4.45009 2.35311 4.64511 2.3534 4.6454 2.3537 4.6457 2.354 4.646L8 10.293 13.646 4.646C13.8415 4.45049 14.1585 4.45049 14.354 4.646 14.5495 4.84151 14.5495 5.15849 14.354 5.354L8.354 11.354C8.15899 11.5495 7.8424 11.5499 7.64689 11.3549 7.6466 11.3546 7.6463 11.3543 7.646 11.354L1.646 5.354C1.45049 5.15899 1.45009 4.8424 1.64511 4.64689 1.6454 4.6466 1.6457 4.6463 1.646 4.646Z" fill="#212529" fill-rule="evenodd" transform="matrix(1 0 0 -1 0 16)"/></g></svg>